<mxfile host="65bd71144e" pages="2">
    <diagram id="diagramid" name="Diagram">
        <mxGraphModel dx="1919" dy="883" grid="0" gridSize="10" guides="1" tooltips="1" connect="1" arrows="1" fold="1" page="1" pageScale="1" pageWidth="827" pageHeight="1169" math="0" shadow="0">
            <root>
                <mxCell id="0"/>
                <mxCell id="1" parent="0"/>
                <mxCell id="2" value="ItemsTable5AAC2C46" style="outlineConnect=0;fontColor=#B3B3B3;gradientColor=#4D72F3;gradientDirection=north;fillColor=#3334B9;strokeColor=#ffffff;dashed=0;verticalLabelPosition=bottom;verticalAlign=top;align=center;html=1;fontSize=12;fontStyle=0;aspect=fixed;shape=mxgraph.aws4.resourceIcon;resIcon=mxgraph.aws4.dynamodb;" parent="1" vertex="1">
                    <mxGeometry x="250" y="350" width="50" height="50" as="geometry"/>
                </mxCell>
                <mxCell id="3" value="ConfirmUserSignupLambdaFunctionServiceRole334E45BB" style="outlineConnect=0;fontColor=#B3B3B3;gradientColor=#F54749;gradientDirection=north;fillColor=#C7131F;strokeColor=#ffffff;dashed=0;verticalLabelPosition=bottom;verticalAlign=top;align=center;html=1;fontSize=12;fontStyle=0;aspect=fixed;shape=mxgraph.aws4.resourceIcon;resIcon=mxgraph.aws4.role;" parent="1" vertex="1">
                    <mxGeometry x="500" y="133.7890625" width="50" height="50" as="geometry"/>
                </mxCell>
                <mxCell id="4" value="ConfirmUserSignupLambdaFunctionServiceRoleDefaultPolicy5C7B354A" style="outlineConnect=0;fontColor=#B3B3B3;gradientColor=#F54749;gradientDirection=north;fillColor=#C7131F;strokeColor=#ffffff;dashed=0;verticalLabelPosition=bottom;verticalAlign=top;align=center;html=1;fontSize=12;fontStyle=0;aspect=fixed;shape=mxgraph.aws4.resourceIcon;resIcon=mxgraph.aws4.identity_and_access_management;" parent="1" vertex="1">
                    <mxGeometry width="50" height="50" as="geometry"/>
                </mxCell>
                <mxCell id="5" value="ConfirmUserSignupLambdaFunction9BD77C4F" style="outlineConnect=0;fontColor=#B3B3B3;gradientColor=#F78E04;gradientDirection=north;fillColor=#D05C17;strokeColor=#ffffff;dashed=0;verticalLabelPosition=bottom;verticalAlign=top;align=center;html=1;fontSize=12;fontStyle=0;aspect=fixed;shape=mxgraph.aws4.resourceIcon;resIcon=mxgraph.aws4.lambda;" parent="1" vertex="1">
                    <mxGeometry x="250" y="200" width="50" height="50" as="geometry"/>
                </mxCell>
                <mxCell id="6" value="ConfirmUserSignupLambdaFunctionInvokeServicePrincipalcognitoidpamazonawscom162486CC" style="outlineConnect=0;fontColor=#B3B3B3;gradientColor=#F54749;gradientDirection=north;fillColor=#C7131F;strokeColor=#ffffff;dashed=0;verticalLabelPosition=bottom;verticalAlign=top;align=center;html=1;fontSize=12;fontStyle=0;aspect=fixed;shape=mxgraph.aws4.resourceIcon;resIcon=mxgraph.aws4.policy;" parent="1" vertex="1">
                    <mxGeometry y="100" width="50" height="50" as="geometry"/>
                </mxCell>
                <mxCell id="7" value="ConfirmUserSignupLambdaFunctionPostConfirmationCognito8D9776D7" style="outlineConnect=0;fontColor=#B3B3B3;gradientColor=#F54749;gradientDirection=north;fillColor=#C7131F;strokeColor=#ffffff;dashed=0;verticalLabelPosition=bottom;verticalAlign=top;align=center;html=1;fontSize=12;fontStyle=0;aspect=fixed;shape=mxgraph.aws4.resourceIcon;resIcon=mxgraph.aws4.policy;" parent="1" vertex="1">
                    <mxGeometry y="200" width="50" height="50" as="geometry"/>
                </mxCell>
                <mxCell id="8" value="ConfirmUserSignupLambdaFunctionUserPoolInvokeConfirmUserSignupLambdaPermission7707FF00" style="outlineConnect=0;fontColor=#B3B3B3;gradientColor=#F54749;gradientDirection=north;fillColor=#C7131F;strokeColor=#ffffff;dashed=0;verticalLabelPosition=bottom;verticalAlign=top;align=center;html=1;fontSize=12;fontStyle=0;aspect=fixed;shape=mxgraph.aws4.resourceIcon;resIcon=mxgraph.aws4.policy;" parent="1" vertex="1">
                    <mxGeometry y="300" width="50" height="50" as="geometry"/>
                </mxCell>
                <mxCell id="9" value="cdkuserpoolA3C15ED9" style="outlineConnect=0;fontColor=#B3B3B3;gradientColor=#F54749;gradientDirection=north;fillColor=#C7131F;strokeColor=#ffffff;dashed=0;verticalLabelPosition=bottom;verticalAlign=top;align=center;html=1;fontSize=12;fontStyle=0;aspect=fixed;shape=mxgraph.aws4.resourceIcon;resIcon=mxgraph.aws4.cognito;" parent="1" vertex="1">
                    <mxGeometry x="500" y="362.5" width="50" height="50" as="geometry"/>
                </mxCell>
                <mxCell id="10" value="cdkUserPoolClient150F6A93" style="outlineConnect=0;fontColor=#B3B3B3;gradientColor=#F54749;gradientDirection=north;fillColor=#C7131F;strokeColor=#ffffff;dashed=0;verticalLabelPosition=bottom;verticalAlign=top;align=center;html=1;fontSize=12;fontStyle=0;aspect=fixed;shape=mxgraph.aws4.resourceIcon;resIcon=mxgraph.aws4.cognito;" parent="1" vertex="1">
                    <mxGeometry x="250" y="450" width="50" height="50" as="geometry"/>
                </mxCell>
                <mxCell id="11" value="cdkappsyncbackendApiLogsRoleE58FCC86" style="outlineConnect=0;fontColor=#B3B3B3;gradientColor=#F54749;gradientDirection=north;fillColor=#C7131F;strokeColor=#ffffff;dashed=0;verticalLabelPosition=bottom;verticalAlign=top;align=center;html=1;fontSize=12;fontStyle=0;aspect=fixed;shape=mxgraph.aws4.resourceIcon;resIcon=mxgraph.aws4.role;" parent="1" vertex="1">
                    <mxGeometry x="500" y="550" width="50" height="50" as="geometry"/>
                </mxCell>
                <mxCell id="12" value="cdkappsyncbackendD6C17700" style="outlineConnect=0;fontColor=#B3B3B3;gradientColor=#F34482;gradientDirection=north;fillColor=#BC1356;strokeColor=#ffffff;dashed=0;verticalLabelPosition=bottom;verticalAlign=top;align=center;html=1;fontSize=12;fontStyle=0;aspect=fixed;shape=mxgraph.aws4.resourceIcon;resIcon=mxgraph.aws4.appsync;" parent="1" vertex="1">
                    <mxGeometry x="250" y="550" width="50" height="50" as="geometry"/>
                </mxCell>
                <mxCell id="13" value="cdkappsyncbackendSchema32F47570" style="outlineConnect=0;fontColor=#B3B3B3;gradientColor=#F34482;gradientDirection=north;fillColor=#BC1356;strokeColor=#ffffff;dashed=0;verticalLabelPosition=bottom;verticalAlign=top;align=center;html=1;fontSize=12;fontStyle=0;aspect=fixed;shape=mxgraph.aws4.resourceIcon;resIcon=mxgraph.aws4.appsync;" parent="1" vertex="1">
                    <mxGeometry y="400" width="50" height="50" as="geometry"/>
                </mxCell>
                <mxCell id="14" value="cdkappsyncbackendcdkApiNoneDS258059DD" style="outlineConnect=0;fontColor=#B3B3B3;gradientColor=#F34482;gradientDirection=north;fillColor=#BC1356;strokeColor=#ffffff;dashed=0;verticalLabelPosition=bottom;verticalAlign=top;align=center;html=1;fontSize=12;fontStyle=0;aspect=fixed;shape=mxgraph.aws4.resourceIcon;resIcon=mxgraph.aws4.appsync;" parent="1" vertex="1">
                    <mxGeometry y="500" width="50" height="50" as="geometry"/>
                </mxCell>
                <mxCell id="15" value="cdkappsyncbackendcdkApiDynmDSServiceRole648EF9C3" style="outlineConnect=0;fontColor=#B3B3B3;gradientColor=#F54749;gradientDirection=north;fillColor=#C7131F;strokeColor=#ffffff;dashed=0;verticalLabelPosition=bottom;verticalAlign=top;align=center;html=1;fontSize=12;fontStyle=0;aspect=fixed;shape=mxgraph.aws4.resourceIcon;resIcon=mxgraph.aws4.role;" parent="1" vertex="1">
                    <mxGeometry x="250" y="650" width="50" height="50" as="geometry"/>
                </mxCell>
                <mxCell id="16" value="cdkappsyncbackendcdkApiDynmDSServiceRoleDefaultPolicy0C804AAE" style="outlineConnect=0;fontColor=#B3B3B3;gradientColor=#F54749;gradientDirection=north;fillColor=#C7131F;strokeColor=#ffffff;dashed=0;verticalLabelPosition=bottom;verticalAlign=top;align=center;html=1;fontSize=12;fontStyle=0;aspect=fixed;shape=mxgraph.aws4.resourceIcon;resIcon=mxgraph.aws4.identity_and_access_management;" parent="1" vertex="1">
                    <mxGeometry y="600" width="50" height="50" as="geometry"/>
                </mxCell>
                <mxCell id="17" value="cdkappsyncbackendcdkApiDynmDS9947427A" style="outlineConnect=0;fontColor=#B3B3B3;gradientColor=#F34482;gradientDirection=north;fillColor=#BC1356;strokeColor=#ffffff;dashed=0;verticalLabelPosition=bottom;verticalAlign=top;align=center;html=1;fontSize=12;fontStyle=0;aspect=fixed;shape=mxgraph.aws4.resourceIcon;resIcon=mxgraph.aws4.appsync;" parent="1" vertex="1">
                    <mxGeometry y="700" width="50" height="50" as="geometry"/>
                </mxCell>
                <mxCell id="18" value="cdkappsyncbackendcdkApiDynmDSQuerygetMyProfileResolverE28AC14E" style="outlineConnect=0;fontColor=#B3B3B3;gradientColor=#F34482;gradientDirection=north;fillColor=#BC1356;strokeColor=#ffffff;dashed=0;verticalLabelPosition=bottom;verticalAlign=top;align=center;html=1;fontSize=12;fontStyle=0;aspect=fixed;shape=mxgraph.aws4.resourceIcon;resIcon=mxgraph.aws4.appsync;" parent="1" vertex="1">
                    <mxGeometry y="800" width="50" height="50" as="geometry"/>
                </mxCell>
                <mxCell id="19" value="CDKMetadata" style="outlineConnect=0;fontColor=#B3B3B3;gradientColor=#aaaaaa;gradientDirection=north;fillColor=#aaaaaa;strokeColor=#ffffff;dashed=0;verticalLabelPosition=bottom;verticalAlign=top;align=center;html=1;fontSize=12;fontStyle=0;aspect=fixed;shape=mxgraph.aws4.resourceIcon;resIcon=mxgraph.aws4.cdk;" parent="1" vertex="1">
                    <mxGeometry y="950" width="50" height="50" as="geometry"/>
                </mxCell>
                <mxCell id="ConfirmUserSignupLambdaFunctionServiceRole334E45BB|ConfirmUserSignupLambdaFunctionServiceRoleDefaultPolicy5C7B354A" value="Roles" style="edgeStyle=orthogonalEdgeStyle;rounded=1;orthogonalLoop=1;jettySize=auto;html=1;labelBackgroundColor=none;fontColor=#EA6B66;noEdgeStyle=1;orthogonal=1;" parent="1" source="4" target="3" edge="1">
                    <mxGeometry relative="1" as="geometry">
                        <Array as="points">
                            <mxPoint x="62" y="15"/>
                            <mxPoint x="150" y="92.578125"/>
                            <mxPoint x="400" y="92.578125"/>
                            <mxPoint x="488" y="148.7890625"/>
                        </Array>
                    </mxGeometry>
                </mxCell>
                <mxCell id="ItemsTable5AAC2C46|ConfirmUserSignupLambdaFunctionServiceRoleDefaultPolicy5C7B354A" value="Resource" style="edgeStyle=orthogonalEdgeStyle;rounded=1;orthogonalLoop=1;jettySize=auto;html=1;labelBackgroundColor=none;fontColor=#EA6B66;noEdgeStyle=1;orthogonal=1;" parent="1" source="4" target="2" edge="1">
                    <mxGeometry relative="1" as="geometry">
                        <Array as="points">
                            <mxPoint x="62" y="35"/>
                            <mxPoint x="238" y="361.6666666666667"/>
                        </Array>
                    </mxGeometry>
                </mxCell>
                <mxCell id="cdkuserpoolA3C15ED9|ConfirmUserSignupLambdaFunction9BD77C4F" value="Variable" style="edgeStyle=orthogonalEdgeStyle;rounded=1;orthogonalLoop=1;jettySize=auto;html=1;labelBackgroundColor=none;fontColor=#EA6B66;noEdgeStyle=1;orthogonal=1;" parent="1" source="5" target="9" edge="1">
                    <mxGeometry relative="1" as="geometry">
                        <Array as="points">
                            <mxPoint x="312" y="235"/>
                            <mxPoint x="488" y="372.5"/>
                        </Array>
                    </mxGeometry>
                </mxCell>
                <mxCell id="ConfirmUserSignupLambdaFunctionServiceRole334E45BB|ConfirmUserSignupLambdaFunction9BD77C4F" value="Role" style="edgeStyle=orthogonalEdgeStyle;rounded=1;orthogonalLoop=1;jettySize=auto;html=1;labelBackgroundColor=none;fontColor=#EA6B66;noEdgeStyle=1;orthogonal=1;" parent="1" source="5" target="3" edge="1">
                    <mxGeometry relative="1" as="geometry">
                        <Array as="points">
                            <mxPoint x="312" y="215"/>
                            <mxPoint x="488" y="168.7890625"/>
                        </Array>
                    </mxGeometry>
                </mxCell>
                <mxCell id="ConfirmUserSignupLambdaFunction9BD77C4F|ConfirmUserSignupLambdaFunctionInvokeServicePrincipalcognitoidpamazonawscom162486CC" value="FunctionName" style="edgeStyle=orthogonalEdgeStyle;rounded=1;orthogonalLoop=1;jettySize=auto;html=1;labelBackgroundColor=none;fontColor=#EA6B66;noEdgeStyle=1;orthogonal=1;" parent="1" source="6" target="5" edge="1">
                    <mxGeometry relative="1" as="geometry">
                        <Array as="points">
                            <mxPoint x="62" y="125"/>
                            <mxPoint x="238" y="211.66666666666666"/>
                        </Array>
                    </mxGeometry>
                </mxCell>
                <mxCell id="ConfirmUserSignupLambdaFunction9BD77C4F|ConfirmUserSignupLambdaFunctionPostConfirmationCognito8D9776D7" value="FunctionName" style="edgeStyle=orthogonalEdgeStyle;rounded=1;orthogonalLoop=1;jettySize=auto;html=1;labelBackgroundColor=none;fontColor=#EA6B66;noEdgeStyle=1;orthogonal=1;" parent="1" source="7" target="5" edge="1">
                    <mxGeometry relative="1" as="geometry">
                        <Array as="points">
                            <mxPoint x="62" y="225"/>
                            <mxPoint x="236" y="225"/>
                        </Array>
                    </mxGeometry>
                </mxCell>
                <mxCell id="ConfirmUserSignupLambdaFunction9BD77C4F|ConfirmUserSignupLambdaFunctionUserPoolInvokeConfirmUserSignupLambdaPermission7707FF00" value="FunctionName" style="edgeStyle=orthogonalEdgeStyle;rounded=1;orthogonalLoop=1;jettySize=auto;html=1;labelBackgroundColor=none;fontColor=#EA6B66;noEdgeStyle=1;orthogonal=1;" parent="1" source="8" target="5" edge="1">
                    <mxGeometry relative="1" as="geometry">
                        <Array as="points">
                            <mxPoint x="62" y="315"/>
                            <mxPoint x="238" y="238.33333333333334"/>
                        </Array>
                    </mxGeometry>
                </mxCell>
                <mxCell id="cdkuserpoolA3C15ED9|ConfirmUserSignupLambdaFunctionUserPoolInvokeConfirmUserSignupLambdaPermission7707FF00" value="SourceArn" style="edgeStyle=orthogonalEdgeStyle;rounded=1;orthogonalLoop=1;jettySize=auto;html=1;labelBackgroundColor=none;fontColor=#EA6B66;noEdgeStyle=1;orthogonal=1;" parent="1" source="8" target="9" edge="1">
                    <mxGeometry relative="1" as="geometry">
                        <Array as="points">
                            <mxPoint x="62" y="335"/>
                            <mxPoint x="150" y="300"/>
                            <mxPoint x="400" y="300"/>
                            <mxPoint x="486" y="382.5"/>
                        </Array>
                    </mxGeometry>
                </mxCell>
                <mxCell id="cdkuserpoolA3C15ED9|cdkUserPoolClient150F6A93" value="UserPoolId" style="edgeStyle=orthogonalEdgeStyle;rounded=1;orthogonalLoop=1;jettySize=auto;html=1;labelBackgroundColor=none;fontColor=#EA6B66;noEdgeStyle=1;orthogonal=1;" parent="1" source="10" target="9" edge="1">
                    <mxGeometry relative="1" as="geometry">
                        <Array as="points">
                            <mxPoint x="312" y="475"/>
                            <mxPoint x="486" y="392.5"/>
                        </Array>
                    </mxGeometry>
                </mxCell>
                <mxCell id="cdkuserpoolA3C15ED9|cdkappsyncbackendD6C17700" value="UserPoolId" style="edgeStyle=orthogonalEdgeStyle;rounded=1;orthogonalLoop=1;jettySize=auto;html=1;labelBackgroundColor=none;fontColor=#EA6B66;noEdgeStyle=1;orthogonal=1;" parent="1" source="12" target="9" edge="1">
                    <mxGeometry relative="1" as="geometry">
                        <Array as="points">
                            <mxPoint x="312" y="565"/>
                            <mxPoint x="488" y="402.5"/>
                        </Array>
                    </mxGeometry>
                </mxCell>
                <mxCell id="cdkappsyncbackendApiLogsRoleE58FCC86|cdkappsyncbackendD6C17700" value="CloudWatchLogsRoleArn" style="edgeStyle=orthogonalEdgeStyle;rounded=1;orthogonalLoop=1;jettySize=auto;html=1;labelBackgroundColor=none;fontColor=#EA6B66;noEdgeStyle=1;orthogonal=1;" parent="1" source="12" target="11" edge="1">
                    <mxGeometry relative="1" as="geometry">
                        <Array as="points">
                            <mxPoint x="312" y="585"/>
                            <mxPoint x="488" y="575"/>
                        </Array>
                    </mxGeometry>
                </mxCell>
                <mxCell id="cdkappsyncbackendD6C17700|cdkappsyncbackendSchema32F47570" value="ApiId" style="edgeStyle=orthogonalEdgeStyle;rounded=1;orthogonalLoop=1;jettySize=auto;html=1;labelBackgroundColor=none;fontColor=#EA6B66;noEdgeStyle=1;orthogonal=1;" parent="1" source="13" target="12" edge="1">
                    <mxGeometry relative="1" as="geometry">
                        <Array as="points">
                            <mxPoint x="62" y="425"/>
                            <mxPoint x="238" y="560"/>
                        </Array>
                    </mxGeometry>
                </mxCell>
                <mxCell id="cdkappsyncbackendD6C17700|cdkappsyncbackendcdkApiNoneDS258059DD" value="ApiId" style="edgeStyle=orthogonalEdgeStyle;rounded=1;orthogonalLoop=1;jettySize=auto;html=1;labelBackgroundColor=none;fontColor=#EA6B66;noEdgeStyle=1;orthogonal=1;" parent="1" source="14" target="12" edge="1">
                    <mxGeometry relative="1" as="geometry">
                        <Array as="points">
                            <mxPoint x="62" y="525"/>
                            <mxPoint x="236" y="570"/>
                        </Array>
                    </mxGeometry>
                </mxCell>
                <mxCell id="cdkappsyncbackendcdkApiDynmDSServiceRole648EF9C3|cdkappsyncbackendcdkApiDynmDSServiceRoleDefaultPolicy0C804AAE" value="Roles" style="edgeStyle=orthogonalEdgeStyle;rounded=1;orthogonalLoop=1;jettySize=auto;html=1;labelBackgroundColor=none;fontColor=#EA6B66;noEdgeStyle=1;orthogonal=1;" parent="1" source="16" target="15" edge="1">
                    <mxGeometry relative="1" as="geometry">
                        <Array as="points">
                            <mxPoint x="62" y="635"/>
                            <mxPoint x="238" y="665"/>
                        </Array>
                    </mxGeometry>
                </mxCell>
                <mxCell id="ItemsTable5AAC2C46|cdkappsyncbackendcdkApiDynmDSServiceRoleDefaultPolicy0C804AAE" value="Resource" style="edgeStyle=orthogonalEdgeStyle;rounded=1;orthogonalLoop=1;jettySize=auto;html=1;labelBackgroundColor=none;fontColor=#EA6B66;noEdgeStyle=1;orthogonal=1;" parent="1" source="16" target="2" edge="1">
                    <mxGeometry relative="1" as="geometry">
                        <Array as="points">
                            <mxPoint x="62" y="615"/>
                            <mxPoint x="236" y="375"/>
                        </Array>
                    </mxGeometry>
                </mxCell>
                <mxCell id="ItemsTable5AAC2C46|cdkappsyncbackendcdkApiDynmDS9947427A" value="TableName" style="edgeStyle=orthogonalEdgeStyle;rounded=1;orthogonalLoop=1;jettySize=auto;html=1;labelBackgroundColor=none;fontColor=#EA6B66;noEdgeStyle=1;orthogonal=1;" parent="1" source="17" target="2" edge="1">
                    <mxGeometry relative="1" as="geometry">
                        <Array as="points">
                            <mxPoint x="62" y="711.6666666666666"/>
                            <mxPoint x="238" y="388.3333333333333"/>
                        </Array>
                    </mxGeometry>
                </mxCell>
                <mxCell id="cdkappsyncbackendD6C17700|cdkappsyncbackendcdkApiDynmDS9947427A" value="ApiId" style="edgeStyle=orthogonalEdgeStyle;rounded=1;orthogonalLoop=1;jettySize=auto;html=1;labelBackgroundColor=none;fontColor=#EA6B66;noEdgeStyle=1;orthogonal=1;" parent="1" source="17" target="12" edge="1">
                    <mxGeometry relative="1" as="geometry">
                        <Array as="points">
                            <mxPoint x="64" y="725"/>
                            <mxPoint x="236" y="580"/>
                        </Array>
                    </mxGeometry>
                </mxCell>
                <mxCell id="cdkappsyncbackendcdkApiDynmDSServiceRole648EF9C3|cdkappsyncbackendcdkApiDynmDS9947427A" value="ServiceRoleArn" style="edgeStyle=orthogonalEdgeStyle;rounded=1;orthogonalLoop=1;jettySize=auto;html=1;labelBackgroundColor=none;fontColor=#EA6B66;noEdgeStyle=1;orthogonal=1;" parent="1" source="17" target="15" edge="1">
                    <mxGeometry relative="1" as="geometry">
                        <Array as="points">
                            <mxPoint x="62" y="738.3333333333334"/>
                            <mxPoint x="238" y="685"/>
                        </Array>
                    </mxGeometry>
                </mxCell>
                <mxCell id="cdkappsyncbackendD6C17700|cdkappsyncbackendcdkApiDynmDSQuerygetMyProfileResolverE28AC14E" value="ApiId" style="edgeStyle=orthogonalEdgeStyle;rounded=1;orthogonalLoop=1;jettySize=auto;html=1;labelBackgroundColor=none;fontColor=#EA6B66;noEdgeStyle=1;orthogonal=1;" parent="1" source="18" target="12" edge="1">
                    <mxGeometry relative="1" as="geometry">
                        <Array as="points">
                            <mxPoint x="62" y="825"/>
                            <mxPoint x="238" y="590"/>
                        </Array>
                    </mxGeometry>
                </mxCell>
            </root>
        </mxGraphModel>
    </diagram>
</mxfile>